<svg width="1570" height="302" viewBox="0 0 1570 302" fill="none" xmlns="http://www.w3.org/2000/svg">
<path fill-rule="evenodd" clip-rule="evenodd" d="M1421.68 232.416L1495.6 276.949L1495.64 276.975C1498.14 278.566 1500.6 279.169 1503.11 278.96C1505.85 278.732 1508.13 277.843 1510.07 276.327L1510.08 276.321C1512.17 274.707 1513.79 272.686 1514.97 270.205C1515.97 268.102 1516.25 265.651 1515.55 262.646L1495.97 178.531L1561.37 122.028C1563.72 119.93 1565.01 117.703 1565.52 115.33C1566.08 112.738 1565.91 110.256 1565.01 107.796C1564.07 105.192 1562.7 103.183 1560.95 101.652C1559.4 100.3 1557.06 99.2318 1553.6 98.7228L1467.38 91.1674L1434 11.9365L1433.99 11.9323C1432.85 9.2143 1431.18 7.32631 1428.98 6.06718C1426.5 4.64823 1424.08 4 1421.68 4C1419.28 4 1416.86 4.64715 1414.36 6.07043C1412.16 7.32945 1410.49 9.21355 1409.36 11.9218L1409.36 11.9292L1409.35 11.9365L1375.97 91.1674L1289.75 98.7228C1286.29 99.2318 1283.95 100.3 1282.4 101.652C1280.65 103.182 1279.29 105.19 1278.34 107.792C1277.46 110.239 1277.29 112.716 1277.85 115.313C1278.36 117.69 1279.65 119.925 1281.98 122.034L1347.38 178.531L1327.8 262.649L1327.8 262.651C1327.1 265.64 1327.38 268.084 1328.38 270.188C1329.56 272.671 1331.18 274.7 1333.28 276.327C1335.22 277.843 1337.51 278.732 1340.24 278.96C1342.76 279.169 1345.21 278.566 1347.71 276.975L1347.75 276.949L1421.68 232.416ZM1279.34 125.033C1276.45 122.437 1274.65 119.478 1273.94 116.155C1273.22 112.832 1273.44 109.59 1274.58 106.429C1275.73 103.257 1277.46 100.661 1279.77 98.6417C1282.08 96.6227 1285.25 95.3248 1289.29 94.748L1373.22 87.3931L1405.67 10.3833C1407.11 6.92223 1409.35 4.32639 1412.38 2.59584C1415.42 0.86528 1418.51 -1.64059e-08 1421.68 0C1424.85 1.64658e-08 1427.95 0.86528 1430.97 2.59584C1433.99 4.32639 1436.23 6.92223 1437.68 10.3833L1470.13 87.3931L1554.06 94.748C1558.1 95.3248 1561.27 96.6227 1563.58 98.6417C1565.89 100.661 1567.62 103.257 1568.77 106.429C1569.93 109.602 1570.15 112.85 1569.43 116.172C1568.71 119.495 1566.91 122.448 1564.01 125.033L1500.42 179.978L1519.45 261.747C1520.32 265.496 1520.03 268.888 1518.59 271.922C1517.14 274.957 1515.13 277.477 1512.53 279.485C1509.93 281.504 1506.91 282.658 1503.44 282.946C1499.98 283.234 1496.67 282.369 1493.49 280.35L1421.68 237.086L1349.86 280.35C1346.68 282.369 1343.37 283.234 1339.91 282.946C1336.45 282.658 1333.42 281.504 1330.82 279.485C1328.23 277.466 1326.21 274.939 1324.76 271.905C1323.32 268.871 1323.03 265.485 1323.9 261.747L1342.93 179.978L1279.34 125.033Z" fill="#DCFD88" fill-opacity="0.32"/>
<path fill-rule="evenodd" clip-rule="evenodd" d="M1191.33 264.764L1242.93 295.844L1242.97 295.87C1244.48 296.833 1245.9 297.167 1247.34 297.047C1249 296.909 1250.34 296.378 1251.48 295.491L1251.49 295.484C1252.77 294.495 1253.77 293.258 1254.5 291.72C1255.05 290.561 1255.23 289.164 1254.81 287.325L1241.15 228.637L1286.77 189.219C1288.21 187.926 1288.95 186.617 1289.23 185.277C1289.57 183.718 1289.47 182.246 1288.93 180.772C1288.34 179.154 1287.51 177.953 1286.48 177.049C1285.65 176.323 1284.3 175.66 1282.09 175.331L1221.97 170.063L1198.68 114.778L1198.68 114.774C1197.99 113.132 1197.01 112.051 1195.75 111.33C1194.21 110.45 1192.76 110.07 1191.33 110.07C1189.92 110.07 1188.46 110.449 1186.91 111.334C1185.65 112.055 1184.68 113.132 1184 114.764L1183.99 114.771L1160.7 170.063L1100.58 175.331C1098.37 175.66 1097.02 176.323 1096.19 177.049C1095.16 177.952 1094.33 179.152 1093.74 180.768C1093.21 182.232 1093.11 183.701 1093.45 185.265C1093.74 186.609 1094.47 187.925 1095.9 189.225L1141.52 228.637L1127.86 287.328L1127.86 287.33C1127.44 289.156 1127.62 290.548 1128.17 291.708C1128.9 293.248 1129.9 294.492 1131.19 295.491C1132.33 296.378 1133.67 296.909 1135.32 297.047C1136.76 297.167 1138.19 296.833 1139.7 295.87L1139.74 295.844L1191.33 264.764ZM1123.96 286.426L1137.08 230.084L1093.26 192.224C1091.27 190.435 1090.03 188.396 1089.54 186.107C1089.04 183.817 1089.19 181.583 1089.98 179.405C1090.77 177.219 1091.97 175.43 1093.56 174.039C1095.15 172.648 1097.33 171.754 1100.11 171.356L1157.95 166.288L1180.3 113.225C1181.3 110.84 1182.84 109.052 1184.93 107.859C1187.02 106.667 1189.16 106.07 1191.33 106.07C1193.52 106.07 1195.66 106.667 1197.74 107.859C1199.82 109.052 1201.36 110.84 1202.36 113.225L1224.72 166.288L1282.56 171.356C1285.34 171.754 1287.52 172.648 1289.11 174.039C1290.7 175.43 1291.9 177.219 1292.69 179.405C1293.49 181.591 1293.64 183.829 1293.14 186.119C1292.65 188.408 1291.41 190.443 1289.41 192.224L1245.59 230.084L1258.71 286.426C1259.3 289.01 1259.1 291.347 1258.11 293.437C1257.12 295.528 1255.73 297.265 1253.94 298.648C1252.15 300.04 1250.06 300.835 1247.68 301.033C1245.29 301.232 1243.01 300.636 1240.82 299.245L1191.33 269.434L1141.85 299.245C1139.66 300.636 1137.38 301.232 1134.99 301.033C1132.61 300.835 1130.52 300.04 1128.73 298.648C1126.94 297.257 1125.55 295.516 1124.56 293.426C1123.56 291.335 1123.37 289.002 1123.96 286.426Z" fill="#DCFD88" fill-opacity="0.32"/>
<path fill-rule="evenodd" clip-rule="evenodd" d="M148.874 232.416L74.9503 276.949L74.9089 276.975C72.409 278.566 69.9543 279.169 67.4379 278.96C64.7044 278.732 62.4242 277.843 60.476 276.327L60.4673 276.321C58.3803 274.707 56.7552 272.686 55.576 270.205C54.5766 268.102 54.3023 265.651 54.9956 262.646L74.578 178.531L9.17694 122.028C6.83419 119.93 5.54071 117.703 5.03003 115.33C4.47201 112.738 4.64175 110.256 5.5364 107.796C6.48343 105.192 7.85311 103.183 9.6029 101.652C11.1484 100.3 13.4868 99.2318 16.9486 98.7228L103.169 91.1674L136.553 11.9365L136.555 11.9323C137.696 9.2143 139.37 7.32631 141.569 6.06718C144.047 4.64823 146.466 4 148.874 4C151.269 4 153.69 4.64715 156.186 6.07043C158.393 7.32945 160.061 9.21355 161.19 11.9218L161.193 11.9292L161.196 11.9365L194.58 91.1674L280.8 98.7228C284.262 99.2318 286.601 100.3 288.146 101.652C289.895 103.182 291.264 105.19 292.211 107.792C293.094 110.239 293.261 112.716 292.702 115.313C292.19 117.69 290.898 119.925 288.565 122.034L223.171 178.531L242.754 262.649L242.755 262.651C243.446 265.64 243.173 268.084 242.173 270.188C240.993 272.671 239.365 274.7 237.273 276.327C235.325 277.843 233.045 278.732 230.311 278.96C227.795 279.169 225.34 278.566 222.84 276.975L222.799 276.949L148.874 232.416ZM291.213 125.033C294.097 122.437 295.897 119.478 296.612 116.155C297.327 112.832 297.114 109.59 295.972 106.429C294.818 103.257 293.088 100.661 290.78 98.6417C288.473 96.6227 285.3 95.3248 281.262 94.748L197.33 87.3931L164.882 10.3833C163.44 6.92223 161.202 4.32639 158.168 2.59584C155.133 0.86528 152.036 -1.64059e-08 148.874 0C145.702 1.64658e-08 142.604 0.86528 139.581 2.59584C136.559 4.32639 134.321 6.92223 132.867 10.3833L100.419 87.3931L16.487 94.748C12.449 95.3248 9.27627 96.6227 6.96887 98.6417C4.66146 100.661 2.93093 103.257 1.77722 106.429C0.623531 109.602 0.404323 112.85 1.11959 116.172C1.8349 119.495 3.64044 122.448 6.53625 125.033L70.1342 179.978L51.0981 261.747C50.2328 265.496 50.5212 268.888 51.9633 271.922C53.4055 274.957 55.4245 277.477 58.0203 279.485C60.6161 281.504 63.6446 282.658 67.1057 282.946C70.5668 283.234 73.8837 282.369 77.0564 280.35L148.874 237.086L220.693 280.35C223.865 282.369 227.182 283.234 230.643 282.946C234.104 282.658 237.133 281.504 239.729 279.485C242.325 277.466 244.344 274.939 245.786 271.905C247.228 268.871 247.516 265.485 246.651 261.747L227.615 179.978L291.213 125.033Z" fill="#DCFD88" fill-opacity="0.32"/>
<path fill-rule="evenodd" clip-rule="evenodd" d="M379.215 264.764L327.623 295.844L327.582 295.87C326.068 296.833 324.645 297.167 323.205 297.047C321.548 296.909 320.209 296.378 319.068 295.491L319.06 295.484C317.78 294.495 316.783 293.258 316.052 291.72C315.501 290.561 315.316 289.164 315.74 287.325L329.403 228.637L283.779 189.219C282.337 187.926 281.604 186.617 281.316 185.277C280.98 183.718 281.082 182.246 281.618 180.772C282.206 179.154 283.038 177.953 284.07 177.049C284.901 176.323 286.255 175.66 288.458 175.331L348.577 170.063L371.871 114.778L371.873 114.774C372.563 113.132 373.54 112.051 374.799 111.33C376.338 110.45 377.793 110.07 379.215 110.07C380.627 110.07 382.085 110.449 383.637 111.334C384.901 112.055 385.873 113.132 386.553 114.764L386.556 114.771L409.853 170.063L469.973 175.331C472.176 175.66 473.53 176.323 474.361 177.049C475.392 177.952 476.223 179.152 476.812 180.768C477.339 182.232 477.439 183.701 477.103 185.265C476.813 186.609 476.081 187.925 474.645 189.225L429.027 228.637L442.691 287.328L442.691 287.33C443.114 289.156 442.93 290.548 442.379 291.708C441.647 293.248 440.647 294.492 439.362 295.491C438.221 296.378 436.883 296.909 435.226 297.047C433.785 297.167 432.362 296.833 430.849 295.87L430.807 295.844L379.215 264.764ZM446.588 286.426L433.471 230.084L477.293 192.224C479.28 190.435 480.52 188.396 481.013 186.107C481.506 183.817 481.359 181.583 480.572 179.405C479.777 177.219 478.585 175.43 476.995 174.039C475.405 172.648 473.219 171.754 470.436 171.356L412.603 166.288L390.245 113.225C389.252 110.84 387.709 109.052 385.619 107.859C383.528 106.667 381.393 106.07 379.215 106.07C377.029 106.07 374.895 106.667 372.812 107.859C370.729 109.052 369.187 110.84 368.185 113.225L345.827 166.288L287.994 171.356C285.212 171.754 283.026 172.648 281.436 174.039C279.846 175.43 278.653 177.219 277.859 179.405C277.064 181.591 276.913 183.829 277.405 186.119C277.898 188.408 279.142 190.443 281.138 192.224L324.96 230.084L311.843 286.426C311.247 289.01 311.445 291.347 312.439 293.437C313.433 295.528 314.824 297.265 316.613 298.648C318.401 300.04 320.488 300.835 322.873 301.033C325.258 301.232 327.543 300.636 329.729 299.245L379.215 269.434L428.701 299.245C430.887 300.636 433.173 301.232 435.558 301.033C437.943 300.835 440.029 300.04 441.818 298.648C443.607 297.257 444.998 295.516 445.992 293.426C446.985 291.335 447.184 289.002 446.588 286.426Z" fill="#DCFD88" fill-opacity="0.32"/>
</svg>
