<svg width="24" height="24" viewBox="0 0 24 24" fill="none" xmlns="http://www.w3.org/2000/svg">
<path fill-rule="evenodd" clip-rule="evenodd" d="M11.9996 2.89998C6.97382 2.89998 2.89961 6.97418 2.89961 12C2.89961 17.0258 6.97382 21.1 11.9996 21.1C17.0254 21.1 21.0996 17.0258 21.0996 12C21.0996 6.97418 17.0254 2.89998 11.9996 2.89998ZM1.09961 12C1.09961 5.98007 5.9797 1.09998 11.9996 1.09998C18.0195 1.09998 22.8996 5.98007 22.8996 12C22.8996 18.0199 18.0195 22.9 11.9996 22.9C5.9797 22.9 1.09961 18.0199 1.09961 12Z" fill="black"/>
<path fill-rule="evenodd" clip-rule="evenodd" d="M7.36321 9.86358C7.71468 9.51211 8.28453 9.51211 8.63601 9.86358L11.9996 13.2272L15.3632 9.86358C15.7147 9.51211 16.2845 9.51211 16.636 9.86358C16.9875 10.2151 16.9875 10.7849 16.636 11.1364L12.636 15.1364C12.2845 15.4878 11.7147 15.4878 11.3632 15.1364L7.36321 11.1364C7.01174 10.7849 7.01174 10.2151 7.36321 9.86358Z" fill="black"/>
</svg>
