<svg width="24" height="24" viewBox="0 0 24 24" fill="none" xmlns="http://www.w3.org/2000/svg">
<path fill-rule="evenodd" clip-rule="evenodd" d="M11.9996 2.89998C6.97382 2.89998 2.89961 6.97418 2.89961 12C2.89961 17.0258 6.97382 21.1 11.9996 21.1C17.0254 21.1 21.0996 17.0258 21.0996 12C21.0996 6.97418 17.0254 2.89998 11.9996 2.89998ZM1.09961 12C1.09961 5.98007 5.9797 1.09998 11.9996 1.09998C18.0195 1.09998 22.8996 5.98007 22.8996 12C22.8996 18.0199 18.0195 22.9 11.9996 22.9C5.9797 22.9 1.09961 18.0199 1.09961 12Z" fill="black"/>
<path fill-rule="evenodd" clip-rule="evenodd" d="M1.09961 12C1.09961 11.5029 1.50255 11.1 1.99961 11.1H21.9996C22.4967 11.1 22.8996 11.5029 22.8996 12C22.8996 12.497 22.4967 12.9 21.9996 12.9H1.99961C1.50255 12.9 1.09961 12.497 1.09961 12Z" fill="black"/>
<path fill-rule="evenodd" clip-rule="evenodd" d="M11.9996 1.09998C12.2524 1.09998 12.4936 1.20632 12.6641 1.39299C15.3125 4.29243 16.8176 8.05515 16.8994 11.9812C16.8997 11.9937 16.8997 12.0062 16.8994 12.0187C16.8176 15.9448 15.3125 19.7075 12.6641 22.607C12.4936 22.7936 12.2524 22.9 11.9996 22.9C11.7468 22.9 11.5056 22.7936 11.3351 22.607C8.68668 19.7075 7.1816 15.9448 7.0998 12.0187C7.09954 12.0062 7.09954 11.9937 7.0998 11.9812C7.1816 8.05515 8.68668 4.29243 11.3351 1.39299C11.5056 1.20632 11.7468 1.09998 11.9996 1.09998ZM8.89982 12C8.96932 15.1401 10.063 18.1617 11.9996 20.6113C13.9362 18.1617 15.0299 15.1401 15.0994 12C15.0299 8.85988 13.9362 5.83828 11.9996 3.38861C10.063 5.83828 8.96932 8.85988 8.89982 12Z" fill="black"/>
</svg>
