<svg width="24" height="24" viewBox="0 0 24 24" fill="none" xmlns="http://www.w3.org/2000/svg">
<path d="M4.34365 16.2691C2.20132 12.5958 2.78559 7.83706 5.84606 4.77591C9.54644 1.0747 15.5839 1.0747 19.2843 4.77591C22.9847 8.47711 22.9847 14.5159 19.2843 18.2171C16.2238 21.2783 11.494 21.8627 7.79363 19.7199L3.39505 21.8358C3.28376 21.8914 3.17247 21.8914 3.03335 21.8914C2.75513 21.8914 2.50473 21.7801 2.30997 21.5853C2.03175 21.307 1.92046 20.8896 2.05957 20.5L4.34365 16.2691ZM17.8097 16.77C19.2008 15.3786 19.9798 13.5141 19.9798 11.5104C19.9798 9.50677 19.2008 7.67008 17.8097 6.25082C16.4186 4.85939 14.5545 4.08019 12.5513 4.08019C10.548 4.08019 8.71177 4.85939 7.29282 6.25082C4.81663 8.72757 4.39929 12.6514 6.34686 15.5734C6.5138 15.8517 6.56944 16.1856 6.45815 16.4918L4.55957 19.5L7.54323 17.6049C7.84927 17.4936 8.18314 17.5214 8.46137 17.7162C11.4105 19.6364 15.3335 19.2468 17.8097 16.77Z" fill="black"/>
</svg>
