<svg width="24" height="24" viewBox="0 0 24 24" fill="none" xmlns="http://www.w3.org/2000/svg">
<path fill-rule="evenodd" clip-rule="evenodd" d="M4.09961 4.99998C4.09961 3.39835 5.39798 2.09998 6.99961 2.09998H16.9996C18.6012 2.09998 19.8996 3.39835 19.8996 4.99998V20.1L20.9996 20.0999C21.4967 20.0999 21.8996 20.5029 21.8996 20.9999C21.8996 21.497 21.4967 21.8999 20.9996 21.8999H2.9996C2.50254 21.8999 2.0996 21.497 2.09961 20.9999C2.09962 20.5029 2.50257 20.0999 2.99962 20.0999L4.09961 20.1V4.99998ZM5.89961 20.1H9.09961V16C9.09961 14.9506 9.95027 14.1 10.9996 14.1H12.9996C14.049 14.1 14.8996 14.9506 14.8996 16V20.1H18.0996V4.99998C18.0996 4.39246 17.6071 3.89998 16.9996 3.89998H6.99961C6.3921 3.89998 5.89961 4.39246 5.89961 4.99998V20.1ZM13.0996 20.1V16C13.0996 15.9447 13.0548 15.9 12.9996 15.9H10.9996C10.9444 15.9 10.8996 15.9447 10.8996 16V20.1H13.0996ZM8.09961 6.99995C8.09961 6.5029 8.50255 6.09995 8.99961 6.09995H9.99961C10.4967 6.09995 10.8996 6.5029 10.8996 6.99995C10.8996 7.49701 10.4967 7.89995 9.99961 7.89995H8.99961C8.50255 7.89995 8.09961 7.49701 8.09961 6.99995ZM13.0996 6.99995C13.0996 6.5029 13.5026 6.09995 13.9996 6.09995H14.9996C15.4967 6.09995 15.8996 6.5029 15.8996 6.99995C15.8996 7.49701 15.4967 7.89995 14.9996 7.89995H13.9996C13.5026 7.89995 13.0996 7.49701 13.0996 6.99995ZM8.09961 11C8.09961 10.5029 8.50255 10.1 8.99961 10.1H9.99961C10.4967 10.1 10.8996 10.5029 10.8996 11C10.8996 11.497 10.4967 11.9 9.99961 11.9H8.99961C8.50255 11.9 8.09961 11.497 8.09961 11ZM13.0996 11C13.0996 10.5029 13.5026 10.1 13.9996 10.1H14.9996C15.4967 10.1 15.8996 10.5029 15.8996 11C15.8996 11.497 15.4967 11.9 14.9996 11.9H13.9996C13.5026 11.9 13.0996 11.497 13.0996 11Z" fill="#111827"/>
</svg>
