<svg width="24" height="24" viewBox="0 0 24 24" fill="none" xmlns="http://www.w3.org/2000/svg">
<path fill-rule="evenodd" clip-rule="evenodd" d="M11 3.89998C7.07875 3.89998 3.89998 7.07875 3.89998 11C3.89998 14.9212 7.07875 18.1 11 18.1C12.9157 18.1 14.6541 17.3413 15.9313 16.108C15.9562 16.0751 15.9836 16.0436 16.0136 16.0136C16.0436 15.9836 16.0751 15.9562 16.108 15.9313C17.3413 14.6541 18.1 12.9157 18.1 11C18.1 7.07875 14.9212 3.89998 11 3.89998ZM17.8976 16.6248C19.1493 15.0917 19.9 13.1335 19.9 11C19.9 6.08464 15.9153 2.09998 11 2.09998C6.08464 2.09998 2.09998 6.08464 2.09998 11C2.09998 15.9153 6.08464 19.9 11 19.9C13.1335 19.9 15.0917 19.1493 16.6248 17.8976L20.3636 21.6364C20.7151 21.9878 21.2849 21.9878 21.6364 21.6364C21.9878 21.2849 21.9878 20.7151 21.6364 20.3636L17.8976 16.6248Z" fill="#0B0D14"/>
</svg>
