<svg width="24" height="24" viewBox="0 0 24 24" fill="none"
    xmlns="http://www.w3.org/2000/svg">
    <path d="M12.0003 18.275L7.85033 20.775C7.667 20.8916 7.47533 20.9416 7.27533 20.9249C7.07533 20.9083 6.90033 20.8416 6.75033 20.725C6.60033 20.6083 6.48366 20.4623 6.40033 20.287C6.317 20.1116 6.30033 19.916 6.35033 19.7L7.45033 14.975L3.77533 11.8C3.60866 11.65 3.50466 11.479 3.46333 11.287C3.422 11.095 3.43433 10.9076 3.50033 10.725C3.567 10.5416 3.667 10.3916 3.80033 10.275C3.93366 10.1583 4.117 10.0833 4.35033 10.05L9.20033 9.62495L11.0753 5.17495C11.1587 4.97495 11.288 4.82495 11.4633 4.72495C11.6387 4.62495 11.8177 4.57495 12.0003 4.57495C12.1837 4.57495 12.3627 4.62495 12.5373 4.72495C12.712 4.82495 12.8413 4.97495 12.9253 5.17495L14.8003 9.62495L19.6503 10.05C19.8837 10.0833 20.067 10.1583 20.2003 10.275C20.3337 10.3916 20.4337 10.5416 20.5003 10.725C20.567 10.9083 20.5797 11.096 20.5383 11.288C20.497 11.48 20.3927 11.6506 20.2253 11.8L16.5503 14.975L17.6503 19.7C17.7003 19.9166 17.6837 20.1126 17.6003 20.288C17.517 20.4633 17.4003 20.609 17.2503 20.725C17.1003 20.8416 16.9253 20.9083 16.7253 20.9249C16.5253 20.9416 16.3337 20.8916 16.1503 20.775L12.0003 18.275Z" fill="#0B0D14"/>
</svg>
