<svg width="24" height="24" viewBox="0 0 24 24" fill="none" xmlns="http://www.w3.org/2000/svg">
<path fill-rule="evenodd" clip-rule="evenodd" d="M11.9996 21.1001C6.97382 21.1001 2.89961 17.0259 2.89961 12.0001C2.89961 6.97431 6.97382 2.9001 11.9996 2.9001C17.0254 2.9001 21.0996 6.97431 21.0996 12.0001C21.0996 17.0259 17.0254 21.1001 11.9996 21.1001ZM1.09961 12.0001C1.09961 18.02 5.9797 22.9001 11.9996 22.9001C18.0195 22.9001 22.8996 18.02 22.8996 12.0001C22.8996 5.98019 18.0195 1.1001 11.9996 1.1001C5.9797 1.1001 1.09961 5.98019 1.09961 12.0001Z" fill="black"/>
<path fill-rule="evenodd" clip-rule="evenodd" d="M7.36321 14.1365C7.71468 14.488 8.28453 14.488 8.63601 14.1365L11.9996 10.7729L15.3632 14.1365C15.7147 14.488 16.2845 14.488 16.636 14.1365C16.9875 13.785 16.9875 13.2152 16.636 12.8637L12.636 8.8637C12.2845 8.51223 11.7147 8.51223 11.3632 8.8637L7.36321 12.8637C7.01174 13.2152 7.01174 13.785 7.36321 14.1365Z" fill="black"/>
</svg>
